PathFileType	4	(X/Y/Z)	D:\Long Term Storage\D'Arcy Smith\Coord15.trc
DataRate	CameraRate	NumFrames	NumMarkers	Units	OrigDataRate	OrigDataStartFrame	OrigNumFrames
120.00	120.00	      134	4	mm	120.00	3631	      4841
Frame#	Time	M1			M2			M3			M4			
		X1	Y1	Z1	X2	Y2	Z2	X3	Y3	Z3	X4	Y4	Z4	

3631	30.250	1096.02173	288.88358	358.72711	1631.99438	300.60370	315.52966							
3632	30.258	1093.63562	286.74799	370.33286	1630.83325	294.91660	331.13092							
3633	30.267	1091.14160	284.84738	381.66684	1629.92004	290.71597	346.45926							
3634	30.275	1088.41028	283.79977	393.23367	1628.70984	286.43958	362.28635							
3635	30.283	1086.12866	283.26364	404.87747	1627.60486	282.97723	378.43060							
3636	30.292	1083.94580	282.84705	416.32870	1626.49426	280.19791	394.64154							
3637	30.300	1081.38696	282.13922	427.53333	1625.34753	278.20599	410.72882							
3638	30.308	1078.74670	282.90662	438.60748	1624.14270	276.95007	426.92093							
3639	30.317	1076.61121	283.80841	449.58850	1622.82886	276.53778	442.74545							
3640	30.325	1074.56152	285.32574	460.54681	1621.64160	277.21613	458.19821							
3641	30.333	1072.89783	286.89084	470.93750	1620.16638	278.07037	473.52612							
3642	30.342	1070.94897	288.87534	480.80917	1618.55469	279.77454	488.80051							
3643	30.350	1069.30847	290.88373	490.67194	1616.91174	282.03815	503.27075							
3644	30.358	1067.42603	294.00076	499.73721	1615.82312	284.72888	517.04950							
3645	30.367	1065.78296	296.42175	507.76672	1614.47559	287.96249	530.22156							
3646	30.375	1064.49634	299.27478	515.81360	1613.31702	291.83282	542.69812							
3647	30.383	1063.38635	302.20123	523.46649	1612.02747	295.70465	554.41180							
3648	30.392	1062.21826	305.06113	530.92828	1610.52063	300.15298	565.15790							
3649	30.400	1061.55798	307.69745	537.11499	1609.54163	303.86090	575.07385							
3650	30.408	1060.44446	310.05066	543.89459	1608.46606	307.90613	583.98737							
3651	30.417	1059.80042	312.58817	548.77197	1607.21521	311.65692	591.69574							
3652	30.425	1059.13806	314.66031	553.11035	1606.16638	316.10159	597.99896							
3653	30.433	1058.72339	316.76041	556.59161	1605.07263	318.77740	603.59698							
3654	30.442	1058.33252	318.29288	559.37177	1604.14343	321.48776	607.90747							
3655	30.450	1057.91602	319.67178	561.13281	1603.26025	323.64426	611.12207							
3656	30.458	1057.61560	320.66388	562.00317	1602.23096	325.16968	613.08197							
3657	30.467	1058.27905	321.29010	562.11761	1601.17908	326.50760	613.84680							
3658	30.475	1057.13403	321.49582	561.68671	1600.42358	326.33609	613.33362							
3659	30.483	1058.10706	321.24472	560.04041	1599.68567	325.90747	611.59149							
3660	30.492	1056.83899	320.90775	557.59106	1599.00842	324.80725	608.66260							
3661	30.500	1057.67029	320.27988	554.42578	1598.22864	323.43588	604.57452							
3662	30.508	1057.21228	319.00732	550.23499	1597.48596	321.85788	599.34692							
3663	30.517	1058.08301	317.92764	545.29376	1597.12537	318.98010	592.92816							
3664	30.525	1057.84546	316.08847	539.42511	1596.46472	316.36966	585.54681							
3665	30.533	1058.46704	314.57077	533.06738	1595.92041	313.18466	577.55109							
3666	30.542	1058.90967	312.52701	525.26678	1595.62048	310.40103	568.07709							
3667	30.550	1060.60364	310.55368	517.48120	1595.16101	307.47238	557.83356							
3668	30.558	1061.49524	308.82358	508.89365	1595.04993	304.77475	546.66541							
3669	30.567	1062.31482	307.06964	500.06210	1594.88977	302.14471	534.65442							
3670	30.575	1064.44507	305.35818	489.98221	1594.94238	299.85507	522.06683							
3671	30.583	1063.66895	304.45038	480.62268	1594.94910	297.70779	509.00430							
3672	30.592	1064.94104	302.89093	469.80319	1594.82422	296.10275	495.42297							
3673	30.600	1066.31360	302.44836	459.42831	1594.98950	294.77298	481.16293							
3674	30.608	1067.62085	301.88370	448.46741	1595.23657	294.19318	466.40576							
3675	30.617	1069.24841	301.66162	437.57782	1595.52686	293.91855	451.40540							
3676	30.625	1070.75525	301.58893	426.42929	1596.09253	293.76172	436.22018							
3677	30.633	1073.18909	301.60913	413.60767	1595.85095	294.63013	420.97858							
3678	30.642	1074.74207	302.27649	402.75916	1596.55444	295.71820	405.53601							
3679	30.650	1076.43860	303.20285	391.41309	1597.00549	297.53046	390.01367							
3680	30.658	1078.35986	304.23651	380.41492	1597.70337	300.09357	374.36261							
3681	30.667	1080.51062	305.82623	368.48291	1598.31519	303.16476	358.94412							
3682	30.675	1082.34094	307.44589	357.34558	1599.10547	306.80338	343.60971							
3683	30.683	1084.16431	309.38907	346.69919	1599.69666	310.65802	328.48691							
3684	30.692	1086.29626	311.53986	335.59262	1600.42493	315.25650	313.62924							
3685	30.700	1089.52771	314.11874	322.07291	1601.07849	320.34598	299.09766							
3686	30.708	1091.76257	316.90256	311.69162	1601.82239	325.70197	284.88107							
3687	30.717	1093.59473	319.64221	302.21231	1602.68506	331.74097	271.10739							
3688	30.725	1096.18176	322.78442	291.57111	1603.38818	338.03409	257.89328							
3689	30.733	1097.63953	325.59570	282.89670	1604.17810	344.65359	245.15570							
3690	30.742	1099.87598	328.81464	273.28278	1605.15381	351.49631	232.95389							
3691	30.750	1102.07983	332.10391	264.46136	1605.98926	358.61307	221.21790							
3692	30.758	1104.29468	335.71436	255.87372	1606.83069	365.72339	210.15266							
3693	30.767	1106.24182	339.23880	247.63863	1607.67615	373.10840	199.74933							
3694	30.775	1108.16504	341.95245	240.84023	1608.70325	380.28586	189.89102							
3695	30.783	1110.09631	345.23111	233.73906	1609.59888	387.42181	180.58629							
3696	30.792	1111.94275	348.74765	226.87201	1610.52808	394.61633	171.97478							
3697	30.800	1113.62231	351.90128	220.20729	1611.42249	401.39325	164.01828							
3698	30.808	1115.51099	355.06949	214.21877	1612.26575	408.18634	156.70683							
3699	30.817	1117.04407	357.90668	208.80957	1613.15430	414.53662	149.93456							
3700	30.825	1118.38611	360.23746	203.92834	1614.29199	420.63214	144.08803							
3701	30.833	1119.83777	362.56601	199.46773	1615.34839	426.32446	138.82132							
3702	30.842	1121.08203	364.54794	195.62740	1616.27869	431.45499	134.39680							
3703	30.850	1122.12512	366.28824	192.17346	1617.63489	435.90543	130.52994							
3704	30.858	1123.15417	367.76959	189.44464	1618.58423	439.84753	127.32674							
3705	30.867	1123.90125	369.01056	187.13692	1619.86072	443.06677	124.74506							
3706	30.875	1124.71863	369.90485	185.32750	1620.97473	445.67715	122.95841							
3707	30.883	1125.18652	370.34656	184.16144	1622.28516	447.44727	121.88615							
3708	30.892	1125.56506	370.54834	183.50781	1623.45007	448.43228	121.24351							
3709	30.900	1125.77002	370.43356	183.32506	1624.60608	448.69968	121.32557							
3710	30.908	1125.86707	369.85370	183.61179	1625.72424	448.18677	121.96996							
3711	30.917	1125.98193	368.85196	184.36629	1626.89648	447.15826	123.11301							
3712	30.925	1125.76416	367.57773	185.74638	1628.10498	445.32797	124.93213							
3713	30.933	1125.38220	366.00711	187.47006	1629.31787	442.77435	127.12148							
3714	30.942	1124.95776	363.91931	189.81500	1630.61584	439.74673	129.94838							
3715	30.950	1124.39648	361.62595	192.49544	1631.74634	436.14713	133.24399							
3716	30.958	1123.62280	358.94641	195.52066	1632.87256	431.97321	136.92050							
3717	30.967	1122.71460	356.12415	199.69888	1633.96375	427.34344	141.04051							
3718	30.975	1121.68652	352.99057	204.07481	1634.95679	422.19308	145.84703							
3719	30.983	1120.53809	349.61826	208.95641	1636.05481	416.61667	151.17247							
3720	30.992	1119.46533	346.33871	214.30191	1637.05750	410.72845	156.97693							
3721	31.000	1117.64612	342.48840	220.09131	1638.35425	404.23071	163.54633							
3722	31.008	1116.16455	338.49530	226.59442	1639.37097	397.67667	170.52829							
3723	31.017	1114.69531	334.56906	233.82034	1640.33777	390.78931	178.15268							
3724	31.025	1113.09143	330.42557	241.51071	1641.33264	383.86795	186.30431							
3725	31.033	1110.48132	325.67041	249.49435	1642.35535	376.74670	195.12648							
3726	31.042	1108.37537	321.57358	258.02640	1643.46704	369.76007	204.71936							
3727	31.050	1105.99670	317.44290	266.88672	1644.57263	362.50681	214.85855							
3728	31.058	1103.46521	313.32898	276.66809	1645.62183	355.43030	225.37788							
3729	31.067	1101.03772	309.61765	285.83411	1646.61206	348.32568	236.76535							
3730	31.075	1097.66504	305.71918	297.09253	1647.61523	341.42059	248.39525							
3731	31.083	1094.97461	301.98737	307.80759	1648.68652	334.69324	260.67108							
3732	31.092	1091.84705	298.62244	318.78162	1649.75488	328.15305	273.51239							
3733	31.100	1087.89563	296.32019	330.62128	1650.68127	322.06497	286.74316							
3734	31.108	1084.77734	293.46204	342.34323	1651.65051	316.30966	300.40842							
3735	31.117	1081.33850	290.25949	355.04794	1652.78528	311.15118	314.30475							
3736	31.125	1077.80652	288.01172	367.19891	1653.63806	306.32089	328.50461							
3737	31.133	1074.15234	286.21347	379.66086	1654.65930	302.29639	342.92105							
3738	31.142	1070.42566	284.80234	392.23529	1655.23120	298.37878	357.50937							
3739	31.150	1066.86255	283.90018	404.63876	1655.99146	295.27365	371.99969							
3740	31.158	1063.10156	283.39258	416.97656	1656.56384	292.45309	386.81613							
3741	31.167	1059.57324	283.25146	429.15042	1656.61780	290.46457	401.54138							
3742	31.175	1055.60779	283.72986	441.23026	1656.94580	289.13449	415.97330							
3743	31.183	1052.34363	284.61993	452.90854	1657.25574	288.16876	430.33862							
3744	31.192	1048.49109	285.70587	464.64389	1657.61682	287.84097	444.55667							
3745	31.200	1044.88074	287.34961	475.75430	1657.56689	287.91156	458.48871							
3746	31.208	1041.12769	289.02493	486.45651	1658.00183	288.95007	471.54663							
3747	31.217	1037.70886	291.38156	496.64948	1657.90051	289.98547	484.45801							
3748	31.225	1034.00903	293.90997	506.51935	1657.62720	290.99548	497.01096							
3749	31.233	1031.17578	296.74088	515.27588	1657.29456	293.02814	508.48010							
3750	31.242	1027.84802	299.57681	523.66168	1656.91626	294.84213	519.06604							
3751	31.250	1024.82385	302.50073	531.30249	1656.76538	296.70535	528.87042							
3752	31.258	1021.96851	305.17941	537.92389	1656.37109	298.77127	537.85431							
3753	31.267	1019.03314	308.41885	544.17334	1655.80554	300.97568	545.66382							
3754	31.275	1016.31940	311.08826	549.55798	1655.11780	303.24295	552.63416							
3755	31.283	1013.74585	313.17654	553.52216	1654.57837	305.26147	558.37653							
3756	31.292	1011.97137	316.01575	557.43237	1654.06079	306.56750	562.89056							
3757	31.300	1008.76050	318.00659	560.06818	1653.11816	308.05981	566.44849							
3758	31.308	1006.74103	319.81064	561.84204	1652.57581	308.92407	568.70306							
3759	31.317	1005.37219	321.12628	562.85870	1651.87305	309.53528	569.83978							
3760	31.325	1002.92377	322.03503	563.17877	1651.18677	309.80957	569.81525							
3761	31.333	1002.07867	322.86920	562.51233	1650.43225	309.66061	568.62622							
3762	31.342	999.71857	323.08029	561.22986	1649.61829	309.07080	566.32935							
3763	31.350	998.56708	323.04181	559.13025	1648.63074	308.11365	562.94788							
3764	31.358	997.65070	322.69653	556.23401	1647.77820	307.44971	558.69189							
